<svg xmlns="http://www.w3.org/2000/svg" viewBox="0 0 18.46 15.27"><defs><style>.cls-1{fill:#0a0a0a;}</style></defs><title>アセット 2</title><g id="レイヤー_2" data-name="レイヤー 2"><g id="レイヤー_5" data-name="レイヤー 5"><path class="cls-1" d="M16.57,3.8c0,.17,0,.33,0,.5a10.81,10.81,0,0,1-10.77,11A10.56,10.56,0,0,1,0,13.53a6.8,6.8,0,0,0,.9.06,7.55,7.55,0,0,0,4.71-1.65A3.8,3.8,0,0,1,2.07,9.26a3.35,3.35,0,0,0,.71.07,4.09,4.09,0,0,0,1-.13,3.86,3.86,0,0,1-3-3.78v0a3.72,3.72,0,0,0,1.72.48A3.86,3.86,0,0,1,.77,2.64,3.91,3.91,0,0,1,1.28.71a10.7,10.7,0,0,0,7.81,4A4.16,4.16,0,0,1,9,3.85,3.83,3.83,0,0,1,12.78,0a3.74,3.74,0,0,1,2.76,1.22A7.66,7.66,0,0,0,18,.28a3.79,3.79,0,0,1-1.67,2.13,7.57,7.57,0,0,0,2.18-.6A7.78,7.78,0,0,1,16.57,3.8Z"/></g></g></svg>