<?xml version="1.0" encoding="utf-8"?>
<!-- Generator: Adobe Illustrator 22.0.1, SVG Export Plug-In . SVG Version: 6.00 Build 0)  -->
<svg version="1.1" id="レイヤー_1" xmlns="http://www.w3.org/2000/svg" xmlns:xlink="http://www.w3.org/1999/xlink" x="0px"
	 y="0px" viewBox="0 0 410.5 107.7" style="enable-background:new 0 0 410.5 107.7;" xml:space="preserve">
<style type="text/css">
	.st0{fill:#0A0A0A;}
</style>
<g>
	<g>
		<path class="st0" d="M151.5,29.2c0.2,2.6,1.1,4.3,2.8,5c0.2,0.1,0.7,0.3,1.3,0.5c0.7,0.2,1.1,0.4,1.5,0.6c0.3,0.2,0.5,0.4,0.5,0.7
			c0,0.6-0.6,0.9-1.9,1c-0.1,0-0.5,0-1.3-0.1c-0.8-0.1-1.8-0.1-2.9-0.2c-1.1-0.1-2.1-0.1-3-0.1s-1.8,0-2.8,0.1
			c-1.1,0.1-2,0.1-2.7,0.2c-0.7,0.1-1.2,0.1-1.2,0.1c-1.3-0.1-2-0.5-2-1c0-0.3,0.2-0.5,0.5-0.7c0.3-0.2,0.8-0.4,1.5-0.6
			c0.7-0.2,1.1-0.4,1.3-0.5c2-0.9,2.9-2.6,2.8-5L145,10.3c0-0.7-0.3-0.9-0.8-0.7c-0.3,0.2-0.6,0.5-0.8,0.9l-8.1,18.6
			c-0.3,0.7-0.9,1.9-1.7,3.4c-0.8,1.5-1.4,2.3-1.6,2.3c-0.3,0-0.6-0.2-1-0.7c-0.3-0.5-0.8-1.5-1.4-3l-7.4-18.9
			c-0.3-0.7-0.5-1.2-0.8-1.3c-0.2-0.2-0.4-0.1-0.5,0.1c-0.1,0.3-0.2,0.7-0.2,1.2l-1,16.7c-0.1,1,0,2.1,0.3,3.1
			c0.3,1.1,0.8,1.8,1.5,2.1c0.2,0.1,0.7,0.3,1.3,0.5c0.7,0.2,1.1,0.4,1.5,0.6c0.3,0.2,0.5,0.4,0.5,0.7c0,0.6-0.6,0.9-1.9,1
			c-0.1,0-0.4,0-1-0.1c-0.6-0.1-1.4-0.1-2.3-0.2c-0.9-0.1-1.8-0.1-2.6-0.1c-0.8,0-1.7,0-2.5,0.1s-1.5,0.1-2.1,0.2
			c-0.5,0.1-0.9,0.1-0.9,0.1c-1.3-0.1-2-0.5-2-1c0-0.3,0.2-0.5,0.4-0.7c0.3-0.2,0.8-0.4,1.5-0.6c0.7-0.2,1.1-0.4,1.4-0.5
			c1.8-0.8,3-2.9,3.5-6.3l2-16c0.2-2,0.2-3.4-0.1-4.3c-0.3-0.9-0.9-1.7-1.8-2.5c-0.2-0.2-0.7-0.5-1.3-0.9c-0.6-0.4-1.1-0.7-1.4-1.1
			c-0.4-0.3-0.5-0.6-0.5-0.9c0-0.6,0.7-0.8,2-0.8c0.7,0,1.7,0.1,3.1,0.1c1.4,0.1,2.6,0.1,3.5,0.1c0.8,0,1.5,0.3,2.1,0.9
			c0.6,0.6,1.1,1.6,1.7,2.9l7,17.2c0.2,0.4,0.3,0.7,0.4,0.8c0.1,0.1,0.2,0.2,0.3,0.4c0.1,0.1,0.3,0.1,0.5-0.1
			c0.2-0.2,0.4-0.6,0.7-1.2l9.4-19.6c0.3-0.6,0.7-1,1.1-1.2c0.4-0.1,1.1-0.2,2-0.2c0.5,0,1.7-0.1,3.7-0.3c2-0.2,3.3-0.3,4-0.3
			c0.6,0,1,0.3,1,1c0,0.3-0.2,0.5-0.4,0.7c-0.3,0.2-1.1,0.6-2.4,1.1c-1,0.4-1.6,1-1.9,1.7c-0.3,0.8-0.5,2-0.4,3.7L151.5,29.2z"/>
		<path class="st0" d="M200.4,36.7c-1.5,0-3.1,0.1-4.8,0.2c-1.7,0.1-2.8,0.2-3.2,0.2c-0.4,0-0.9-0.1-1.3-0.3
			c-0.4-0.2-0.6-0.4-0.6-0.8c0-0.3,0.1-0.5,0.4-0.7c0.3-0.2,0.8-0.4,1.4-0.6c0.7-0.2,1.1-0.4,1.3-0.5c1.6-0.7,2.1-1.8,1.7-3.2
			l-1.7-5.7c-0.2-0.5-0.5-0.7-1-0.7h-10c-0.5,0-0.8,0.2-1,0.7l-2.3,6.5c-0.4,1.3,0,2.2,1.3,2.5c1.5,0.4,2.2,1,2.2,1.7
			c0,0.7-0.7,1-2.1,1c-0.4,0-1.2-0.1-2.5-0.2s-2.1-0.2-2.4-0.2c-0.6,0-1.3,0.1-2.1,0.2c-0.9,0.1-1.4,0.2-1.6,0.2c-1.3,0-2-0.3-2-1
			c0-0.3,0.2-0.5,0.5-0.7c0.3-0.2,0.8-0.4,1.5-0.6c0.7-0.2,1.1-0.4,1.3-0.5c0.2-0.1,0.4-0.2,0.5-0.2c0.2-0.1,0.3-0.2,0.4-0.2
			c0.1-0.1,0.2-0.2,0.4-0.3c0.1-0.1,0.2-0.2,0.3-0.2c0.1,0,0.1-0.1,0.2-0.3c0.1-0.2,0.1-0.3,0.2-0.3c0,0,0.1-0.2,0.2-0.4
			c0.1-0.2,0.2-0.4,0.2-0.5c0-0.1,0.1-0.3,0.2-0.6c0.1-0.3,0.2-0.5,0.2-0.7l9.2-25.4c0.2-0.4,0.3-0.9,0.5-1.3c0.2-0.4,0.3-0.8,0.4-1
			c0.1-0.2,0.2-0.4,0.2-0.6c0.1-0.2,0.2-0.3,0.3-0.4c0.1-0.1,0.2-0.1,0.3-0.1c0.4,0,1-0.3,1.6-0.9c0.6-0.6,0.9-0.9,1-0.9
			c0.2,0,0.4,0.1,0.5,0.2c0.2,0.1,0.3,0.4,0.4,0.7c0.1,0.3,0.3,0.6,0.4,0.9c0.1,0.3,0.2,0.7,0.4,1.3c0.2,0.6,0.3,1,0.4,1.3l7.9,22.4
			c1,2.6,1.7,4.4,2.3,5.4c0.6,0.9,1.6,1.7,3,2.2c1.6,0.6,2.4,1.2,2.4,1.9c0,0.6-0.6,1-1.7,1c-0.4,0-1.2-0.1-2.5-0.2
			C202.1,36.8,201.1,36.7,200.4,36.7z M183.3,20.6c-0.2,0.5-0.3,0.8-0.3,1c0.1,0.2,0.3,0.3,0.8,0.3h7.3c0.6,0,0.9-0.1,1-0.4
			c0.1-0.2,0-0.8-0.4-1.8l-3.7-11.2C188,8,187.8,8,187.5,8.7L183.3,20.6z"/>
		<path class="st0" d="M235.6,29.9c0,1.1,0.2,2,0.6,2.7c0.4,0.7,1.1,1.2,2.2,1.7c0.2,0.1,0.7,0.3,1.4,0.5c0.7,0.2,1.1,0.4,1.5,0.6
			c0.3,0.2,0.5,0.4,0.5,0.7c0,0.6-0.6,0.9-1.9,1c-0.1,0-0.5,0-1.3-0.1c-0.8-0.1-1.8-0.1-2.9-0.2s-2.1-0.1-3-0.1
			c-0.8,0-1.8,0-2.8,0.1c-1.1,0.1-2,0.1-2.7,0.2c-0.7,0.1-1.2,0.1-1.2,0.1c-1.3-0.1-2-0.5-2-1c0-0.3,0.2-0.5,0.5-0.7
			c0.3-0.2,0.8-0.4,1.5-0.6c0.7-0.2,1.1-0.4,1.3-0.5c1-0.4,1.8-1,2.2-1.7c0.4-0.7,0.6-1.6,0.6-2.7V23c0-0.9-0.3-1.9-1-3l-5.8-9.8
			c-1.2-2.2-2.3-3.7-3.2-4.7c-0.9-0.9-1.9-1.6-2.9-1.9c-0.6-0.2-1-0.5-1-1c0-0.3,0.2-0.6,0.7-0.8c0.4-0.2,0.9-0.3,1.4-0.3
			c0.8,0,1.6,0.1,2.4,0.1c0.8,0.1,1.6,0.1,2.3,0.1c0.7,0,1.7,0,2.9-0.1c1.2-0.1,2.2-0.1,2.8-0.1c0.5,0,1,0.1,1.4,0.3
			c0.4,0.2,0.7,0.5,0.7,0.8c0,0.5-0.3,0.8-0.9,1C229,3.9,228.4,4.4,228,5c-0.4,0.6-0.4,1.2-0.1,1.8l5.5,9.4c0.3,0.5,0.5,0.7,0.6,0.7
			c0.1,0,0.3-0.3,0.6-0.8l5.3-10.1c0.2-0.4,0-0.8-0.3-1.3c-0.4-0.5-0.9-0.9-1.4-1.1c-0.7-0.2-1-0.6-1-1.1c0-0.3,0.2-0.6,0.7-0.8
			c0.4-0.2,0.9-0.3,1.4-0.3c0.3,0,1,0.1,2.2,0.1c1.2,0.1,1.9,0.1,2.2,0.1c0.3,0,0.9,0,1.9-0.1c1-0.1,1.6-0.1,1.9-0.1
			c0.5,0,1,0.1,1.4,0.3c0.4,0.2,0.7,0.5,0.7,0.8c0,0.4-0.3,0.8-1,1c-1.9,0.6-3.3,1.3-4.3,2c-0.9,0.7-1.9,2-2.9,4l-4.6,8.8
			c-0.7,1.4-1.1,2.5-1.1,3.3V29.9z"/>
		<path class="st0" d="M297.7,7.4V22c0,4.6-1.4,8.4-4.1,11.2c-2.8,2.8-6.4,4.2-10.8,4.2c-5,0-8.6-1.3-10.5-3.9c-2-2.6-3-6.4-3-11.4
			V8c0-1.4-0.2-2.3-0.7-2.8c-0.4-0.5-1.6-1-3.5-1.6c-0.6-0.2-1-0.5-1-1c0-0.3,0.2-0.6,0.7-0.8c0.4-0.2,0.9-0.3,1.4-0.3
			c0.8,0,1.6,0.1,2.4,0.1c0.8,0.1,1.6,0.1,2.3,0.1c0.7,0,1.9,0,3.5-0.1c1.6-0.1,2.7-0.1,3.4-0.1c0.5,0,1,0.1,1.4,0.3
			c0.4,0.2,0.7,0.5,0.7,0.8c0,0.5-0.3,0.8-0.9,1c-1.4,0.4-2.4,1-3,1.6c-0.7,0.6-1,1.5-1,2.7v12c0,5.1,0.6,8.8,1.9,11
			c1.3,2.3,3.6,3.4,7.2,3.4c3.9,0,6.6-1.3,8-4c1.5-2.6,2.2-6.5,2.2-11.6V7.6c0-1-0.1-1.8-0.4-2.3c-0.2-0.5-0.5-0.8-0.8-0.9
			c-0.3-0.1-1-0.4-2.1-0.7c-0.7-0.2-1-0.6-1-1.1c0-0.3,0.2-0.6,0.7-0.8c0.4-0.2,0.9-0.3,1.4-0.3c0.3,0,1,0.1,2,0.1
			c1,0.1,1.6,0.1,1.9,0.1c0.3,0,0.9,0,1.9-0.1c1-0.1,1.6-0.1,1.9-0.1c0.5,0,1,0.1,1.4,0.3c0.4,0.2,0.7,0.5,0.7,0.8
			c0,0.4-0.3,0.8-1,1c-1.4,0.4-2.3,0.9-2.7,1.4C297.9,5.5,297.7,6.3,297.7,7.4z"/>
		<path class="st0" d="M41.9,99.2c0.2,2.6,1.1,4.3,2.8,5c0.2,0.1,0.7,0.3,1.3,0.5c0.7,0.2,1.1,0.4,1.5,0.6c0.3,0.2,0.5,0.4,0.5,0.7
			c0,0.6-0.6,0.9-1.9,1c-0.1,0-0.5,0-1.3-0.1c-0.8-0.1-1.8-0.1-2.9-0.2c-1.1-0.1-2.1-0.1-3-0.1s-1.8,0-2.8,0.1
			c-1.1,0.1-2,0.1-2.7,0.2c-0.7,0.1-1.2,0.1-1.2,0.1c-1.3-0.1-2-0.5-2-1c0-0.3,0.2-0.5,0.5-0.7c0.3-0.2,0.8-0.4,1.5-0.6
			c0.7-0.2,1.1-0.4,1.3-0.5c2-0.9,2.9-2.6,2.8-5l-0.8-18.9c0-0.7-0.3-0.9-0.8-0.7c-0.3,0.2-0.6,0.5-0.8,0.9l-8.1,18.6
			c-0.3,0.7-0.9,1.9-1.7,3.4c-0.8,1.5-1.4,2.3-1.6,2.3c-0.3,0-0.6-0.2-1-0.7c-0.3-0.5-0.8-1.5-1.4-3l-7.4-18.9
			c-0.3-0.7-0.5-1.2-0.8-1.3c-0.2-0.2-0.4-0.1-0.5,0.1c-0.1,0.3-0.2,0.7-0.2,1.2l-1,16.7c-0.1,1,0,2.1,0.3,3.1
			c0.3,1.1,0.8,1.8,1.5,2.1c0.2,0.1,0.7,0.3,1.3,0.5c0.7,0.2,1.1,0.4,1.5,0.6c0.3,0.2,0.5,0.4,0.5,0.7c0,0.6-0.6,0.9-1.9,1
			c-0.1,0-0.4,0-1-0.1c-0.6-0.1-1.4-0.1-2.3-0.2c-0.9-0.1-1.8-0.1-2.6-0.1c-0.8,0-1.7,0-2.5,0.1s-1.5,0.1-2.1,0.2
			c-0.5,0.1-0.9,0.1-0.9,0.1c-1.3-0.1-2-0.5-2-1c0-0.3,0.2-0.5,0.4-0.7c0.3-0.2,0.8-0.4,1.5-0.6c0.7-0.2,1.1-0.4,1.4-0.5
			c1.8-0.8,3-2.9,3.5-6.3l2-16c0.2-2,0.2-3.4-0.1-4.3c-0.3-0.9-0.9-1.7-1.8-2.5c-0.2-0.2-0.7-0.5-1.3-0.9c-0.6-0.4-1.1-0.7-1.4-1.1
			c-0.4-0.3-0.5-0.6-0.5-0.9c0-0.6,0.7-0.8,2-0.8c0.7,0,1.7,0.1,3.1,0.1c1.4,0.1,2.6,0.1,3.5,0.1c0.8,0,1.5,0.3,2.1,0.9
			c0.6,0.6,1.1,1.6,1.7,2.9l7,17.2c0.2,0.4,0.3,0.7,0.4,0.8c0.1,0.1,0.2,0.2,0.3,0.4c0.1,0.1,0.3,0.1,0.5-0.1
			c0.2-0.2,0.4-0.6,0.7-1.2l9.4-19.6c0.3-0.6,0.7-1,1.1-1.2c0.4-0.1,1.1-0.2,2-0.2c0.5,0,1.7-0.1,3.7-0.3c2-0.2,3.3-0.3,4-0.3
			c0.6,0,1,0.3,1,1c0,0.3-0.2,0.5-0.4,0.7c-0.3,0.2-1.1,0.6-2.4,1.1c-1,0.4-1.6,1-1.9,1.7c-0.3,0.8-0.5,2-0.4,3.7L41.9,99.2z"/>
		<path class="st0" d="M92.3,106.7c-1.5,0-3.1,0.1-4.8,0.2c-1.7,0.1-2.8,0.2-3.2,0.2c-0.4,0-0.9-0.1-1.3-0.3
			c-0.4-0.2-0.6-0.4-0.6-0.8c0-0.3,0.1-0.5,0.4-0.7c0.3-0.2,0.8-0.4,1.4-0.6c0.7-0.2,1.1-0.4,1.3-0.5c1.6-0.7,2.1-1.8,1.7-3.2
			l-1.7-5.7c-0.2-0.5-0.5-0.7-1-0.7h-10c-0.5,0-0.8,0.2-1,0.7l-2.3,6.5c-0.4,1.3,0,2.2,1.3,2.5c1.5,0.4,2.2,1,2.2,1.7
			c0,0.7-0.7,1-2.1,1c-0.4,0-1.2-0.1-2.5-0.2s-2.1-0.2-2.4-0.2c-0.6,0-1.3,0.1-2.1,0.2c-0.9,0.1-1.4,0.2-1.6,0.2c-1.3,0-2-0.3-2-1
			c0-0.3,0.2-0.5,0.5-0.7c0.3-0.2,0.8-0.4,1.5-0.6c0.7-0.2,1.1-0.4,1.3-0.5c0.2-0.1,0.4-0.2,0.5-0.2c0.2-0.1,0.3-0.2,0.4-0.2
			c0.1-0.1,0.2-0.2,0.4-0.3c0.1-0.1,0.2-0.2,0.3-0.2c0.1,0,0.1-0.1,0.2-0.3c0.1-0.2,0.1-0.3,0.2-0.3c0,0,0.1-0.2,0.2-0.4
			c0.1-0.2,0.2-0.4,0.2-0.5c0-0.1,0.1-0.3,0.2-0.6c0.1-0.3,0.2-0.5,0.2-0.7l9.2-25.4c0.2-0.4,0.3-0.9,0.5-1.3c0.2-0.4,0.3-0.8,0.4-1
			c0.1-0.2,0.2-0.4,0.2-0.6c0.1-0.2,0.2-0.3,0.3-0.4c0.1-0.1,0.2-0.1,0.3-0.1c0.4,0,1-0.3,1.6-0.9c0.6-0.6,0.9-0.9,1-0.9
			c0.2,0,0.4,0.1,0.5,0.2c0.2,0.1,0.3,0.4,0.4,0.7c0.1,0.3,0.3,0.6,0.4,0.9c0.1,0.3,0.2,0.7,0.4,1.3c0.2,0.6,0.3,1,0.4,1.3l7.9,22.4
			c1,2.6,1.7,4.4,2.3,5.4c0.6,0.9,1.6,1.7,3,2.2c1.6,0.6,2.4,1.2,2.4,1.9c0,0.6-0.6,1-1.7,1c-0.4,0-1.2-0.1-2.5-0.2
			C94,106.8,93,106.7,92.3,106.7z M75.2,90.6c-0.2,0.5-0.3,0.8-0.3,1c0.1,0.2,0.3,0.3,0.8,0.3H83c0.6,0,0.9-0.1,1-0.4
			c0.1-0.2,0-0.8-0.4-1.8L80,78.5c-0.2-0.6-0.4-0.5-0.7,0.2L75.2,90.6z"/>
		<path class="st0" d="M126.3,76.7c0-1.2-0.3-1.9-1-1.9H118c-0.7,0-1.2,0.1-1.6,0.4c-0.3,0.3-0.7,0.7-1,1.4
			c-0.1,0.2-0.3,0.5-0.4,0.9c-0.2,0.4-0.3,0.8-0.5,1c-0.1,0.2-0.3,0.5-0.4,0.7c-0.2,0.2-0.4,0.3-0.6,0.3c-0.7,0-1.1-0.5-1.1-1.4
			c0-0.4,0-1,0.2-1.7c0.1-0.7,0.2-1.4,0.2-2.1c0-0.4,0-0.9-0.1-1.5c0-0.6-0.1-1-0.1-1.2c0-0.4,0.1-0.8,0.3-1.1
			c0.2-0.3,0.4-0.4,0.7-0.4c0.1,0,0.8,0.3,2,0.9c1.2,0.6,2.4,0.9,3.7,0.9h20.9c1.6,0,3-0.3,4.2-1c0.2-0.1,0.3-0.2,0.6-0.4
			c0.2-0.2,0.4-0.3,0.6-0.4c0.2-0.1,0.4-0.1,0.6-0.1c0.3,0,0.6,0.1,0.8,0.3c0.2,0.2,0.3,0.5,0.3,0.8c0,0.1,0,0.4-0.1,1
			c-0.1,0.5-0.1,1.1-0.1,1.6c0,0.6,0,1.3,0.1,2.4c0,1,0.1,1.6,0.1,1.8c0,0.9-0.3,1.4-0.8,1.4c-0.4,0-1.1-0.9-2.2-2.7
			c-0.7-1.1-1.4-1.7-2.2-1.7h-9.3c-0.5,0-0.7,0.6-0.7,1.9v23.3c0,1.1,0.2,2,0.7,2.7c0.4,0.7,1.2,1.2,2.2,1.6
			c0.2,0.1,0.7,0.3,1.3,0.5c0.7,0.2,1.1,0.4,1.5,0.6c0.3,0.2,0.5,0.4,0.5,0.7c0,0.6-0.6,0.9-1.9,1c-0.1,0-0.5,0-1.3-0.1
			c-0.8-0.1-1.8-0.1-2.9-0.2c-1.1-0.1-2.1-0.1-3-0.1s-1.8,0-2.8,0.1c-1.1,0.1-2,0.1-2.7,0.2c-0.7,0.1-1.2,0.1-1.2,0.1
			c-1.3-0.1-2-0.5-2-1c0-0.3,0.2-0.5,0.5-0.7c0.3-0.2,0.8-0.4,1.5-0.6c0.7-0.2,1.1-0.4,1.3-0.5c1-0.4,1.7-1,2.2-1.6
			c0.4-0.7,0.7-1.5,0.7-2.7V76.7z"/>
		<path class="st0" d="M176.6,70.9c2.1,0,4.1,0.5,6.1,1.6c1.1,0.6,1.7,1.2,1.8,1.7c0.2,0.8,0.2,2,0.2,3.4c0,1.1-0.4,1.6-1.2,1.6
			c-0.8,0-1.6-0.9-2.4-2.8c-0.3-0.7-0.9-1.2-1.9-1.6c-1-0.4-1.9-0.6-2.9-0.6c-1.3,0-2.5,0.5-3.5,1.4c-1,0.9-1.5,2-1.5,3.4
			c0,1.6,1,3.3,3.1,5l8.5,7.1c1.9,1.6,2.9,3.6,2.9,6.1c0,2.8-1.2,5.3-3.7,7.3c-2.5,2-5.2,3-8.4,3c-2.3,0-4.4-0.4-6.3-1.3
			c-1.2-0.5-1.9-0.9-2.2-1.2c-0.3-0.3-0.5-0.6-0.5-1c0-1.2,0.1-2.6,0.4-4.1c0.2-1,0.5-1.4,1.1-1.4c0.8,0,1.5,0.9,2,2.8
			c0.4,1.1,1.1,2.1,2.2,2.8c1.1,0.7,2.6,1.1,4.2,1.1c1.5,0,2.7-0.6,3.7-1.7c1-1.2,1.5-2.5,1.5-4c0-1.8-0.8-3.4-2.4-4.8l-8.1-6.8
			c-2.4-2-3.5-4.3-3.5-6.9c0-2.8,1-5.2,3.1-7.1C171.1,71.9,173.6,70.9,176.6,70.9z"/>
		<path class="st0" d="M237.6,77.4V92c0,4.6-1.4,8.4-4.1,11.2c-2.8,2.8-6.4,4.2-10.8,4.2c-5,0-8.6-1.3-10.5-3.9c-2-2.6-3-6.4-3-11.4
			V78c0-1.4-0.2-2.3-0.7-2.8c-0.4-0.5-1.6-1-3.5-1.6c-0.6-0.2-1-0.5-1-1c0-0.3,0.2-0.6,0.7-0.8c0.4-0.2,0.9-0.3,1.4-0.3
			c0.8,0,1.6,0.1,2.4,0.1c0.8,0.1,1.6,0.1,2.3,0.1c0.7,0,1.9,0,3.5-0.1c1.6-0.1,2.7-0.1,3.4-0.1c0.5,0,1,0.1,1.4,0.3
			c0.4,0.2,0.7,0.5,0.7,0.8c0,0.5-0.3,0.8-0.9,1c-1.4,0.4-2.4,1-3,1.6c-0.7,0.6-1,1.5-1,2.7v12c0,5.1,0.6,8.8,1.9,11
			c1.3,2.3,3.6,3.4,7.2,3.4c3.9,0,6.6-1.3,8-4c1.5-2.6,2.2-6.5,2.2-11.6V77.6c0-1-0.1-1.8-0.4-2.3c-0.2-0.5-0.5-0.8-0.8-0.9
			c-0.3-0.1-1-0.4-2.1-0.7c-0.7-0.2-1-0.6-1-1.1c0-0.3,0.2-0.6,0.7-0.8c0.4-0.2,0.9-0.3,1.4-0.3c0.3,0,1,0.1,2,0.1
			c1,0.1,1.6,0.1,1.9,0.1c0.3,0,0.9,0,1.9-0.1c1-0.1,1.6-0.1,1.9-0.1c0.5,0,1,0.1,1.4,0.3c0.4,0.2,0.7,0.5,0.7,0.8
			c0,0.4-0.3,0.8-1,1c-1.4,0.4-2.3,0.9-2.7,1.4C237.8,75.5,237.6,76.3,237.6,77.4z"/>
		<path class="st0" d="M281.2,71.1c4.1,0,7.8,1.8,11.2,5.4c3.4,3.6,5.1,7.6,5.1,11.9c0,5.2-1.7,9.8-5.1,13.6
			c-3.4,3.8-7.7,5.7-12.7,5.7c-5.4,0-10-1.7-13.6-5.2c-3.6-3.4-5.4-7.9-5.4-13.3c0-5.6,1.9-10,5.7-13.3
			C270.3,72.7,275.2,71.1,281.2,71.1z M267.5,87.2c0,4.5,1.2,8.6,3.6,12.3c2.4,3.7,5.6,5.5,9.5,5.5c3.3,0,5.9-1.5,7.6-4.4
			c1.8-2.9,2.6-6.4,2.6-10.3c0-4.2-1.1-8-3.2-11.3c-2.1-3.3-5.1-5-8.7-5c-3.2,0-5.9,1.4-8.1,4.1C268.6,80.6,267.5,83.7,267.5,87.2z"
			/>
		<path class="st0" d="M342.1,74.9c-0.1-0.6-0.5-1-1.1-1.2c-0.7-0.2-1-0.6-1-1.1c0-0.3,0.2-0.6,0.7-0.8c0.4-0.2,0.9-0.3,1.4-0.3
			c0.3,0,1.1,0.1,2.5,0.1c1.4,0.1,2.3,0.1,2.6,0.1c0.3,0,1.2,0,2.6-0.1c1.4-0.1,2.2-0.1,2.5-0.1c1.1,0,1.7,0.4,1.7,1.1
			c0,0.3-0.1,0.6-0.4,0.8c-0.3,0.3-0.6,0.4-1,0.4c-3.3,0.6-6.2,2.3-8.8,5.1l-6.5,7.1c-0.1,0.1-0.2,0.2-0.3,0.3
			c-0.1,0.1-0.2,0.2-0.3,0.3c0,0.1-0.1,0.1-0.1,0.2c-0.1,0.1-0.1,0.2-0.1,0.2s0,0.1,0.1,0.3c0,0.1,0.1,0.3,0.2,0.4
			c0.1,0.1,0.3,0.3,0.4,0.5l11.4,13.1c1.4,1.6,3.4,2.4,6,2.4c0.4,0,0.7,0.1,1,0.4c0.3,0.3,0.5,0.5,0.5,0.7c0,0.6-0.4,1.1-1.1,1.7
			c-0.7,0.6-1.7,0.8-2.8,0.8c-2,0-3.6-0.2-4.9-0.7c-1.3-0.5-2.6-1.3-3.7-2.6L334,93.4c-1.2-1.3-2.1-1.9-2.7-1.9
			c-0.6,0-0.9,0.3-0.9,1v7.5c0,1.1,0.2,2,0.7,2.7c0.4,0.7,1.2,1.2,2.2,1.6c0.2,0.1,0.7,0.3,1.3,0.5c0.7,0.2,1.1,0.4,1.5,0.6
			c0.3,0.2,0.5,0.4,0.5,0.7c0,0.6-0.6,0.9-1.9,1c-0.1,0-0.5,0-1.3-0.1c-0.8-0.1-1.8-0.1-2.9-0.2c-1.1-0.1-2.1-0.1-3-0.1
			c-0.8,0-1.8,0-2.8,0.1c-1.1,0.1-2,0.1-2.7,0.2c-0.7,0.1-1.2,0.1-1.2,0.1c-1.3-0.1-2-0.5-2-1c0-0.3,0.2-0.5,0.5-0.7
			c0.3-0.2,0.8-0.4,1.5-0.6c0.7-0.2,1.1-0.4,1.3-0.5c1-0.4,1.7-1,2.2-1.6c0.4-0.7,0.7-1.5,0.7-2.7V78c0-0.4,0-0.7,0-1
			c0-0.3-0.1-0.6-0.2-0.8c-0.1-0.3-0.2-0.5-0.3-0.6c-0.1-0.2-0.2-0.3-0.5-0.5c-0.2-0.2-0.4-0.3-0.5-0.4c-0.1-0.1-0.3-0.2-0.7-0.3
			c-0.4-0.1-0.6-0.2-0.8-0.3c-0.1,0-0.5-0.1-1-0.3c-0.5-0.1-0.9-0.2-1-0.3c-0.6-0.2-1-0.5-1-1c0-0.3,0.2-0.6,0.7-0.8
			c0.4-0.2,0.9-0.3,1.4-0.3c0.8,0,1.9,0.1,3.4,0.1c1.5,0.1,2.5,0.1,3.3,0.1c0.7,0,1.8,0,3.3-0.1c1.5-0.1,2.6-0.1,3.3-0.1
			c0.5,0,1,0.1,1.4,0.3c0.4,0.2,0.7,0.5,0.7,0.8c0,0.5-0.3,0.8-0.9,1c-0.2,0-0.6,0.1-1.1,0.3c-0.5,0.1-0.8,0.2-1,0.3
			c-0.1,0-0.4,0.1-0.8,0.3c-0.4,0.1-0.6,0.2-0.7,0.3c-0.1,0.1-0.3,0.2-0.5,0.4c-0.2,0.2-0.4,0.3-0.4,0.5c-0.1,0.2-0.2,0.4-0.3,0.6
			c-0.1,0.3-0.2,0.5-0.2,0.8c0,0.3,0,0.6,0,1v8c0,0.7,0.4,1.1,1.1,1.1c0.3,0,1.3-0.9,2.8-2.6l7.4-8.3
			C342.1,75.9,342.2,75.5,342.1,74.9z"/>
		<path class="st0" d="M403.3,106.7c-1.5,0-3.1,0.1-4.8,0.2c-1.7,0.1-2.8,0.2-3.2,0.2c-0.4,0-0.9-0.1-1.3-0.3
			c-0.4-0.2-0.6-0.4-0.6-0.8c0-0.3,0.1-0.5,0.4-0.7c0.3-0.2,0.8-0.4,1.4-0.6c0.7-0.2,1.1-0.4,1.3-0.5c1.6-0.7,2.1-1.8,1.7-3.2
			l-1.7-5.7c-0.2-0.5-0.5-0.7-1-0.7h-10c-0.5,0-0.8,0.2-1,0.7l-2.3,6.5c-0.4,1.3,0,2.2,1.3,2.5c1.5,0.4,2.2,1,2.2,1.7
			c0,0.7-0.7,1-2.1,1c-0.4,0-1.2-0.1-2.5-0.2s-2.1-0.2-2.4-0.2c-0.6,0-1.3,0.1-2.1,0.2c-0.9,0.1-1.4,0.2-1.6,0.2c-1.3,0-2-0.3-2-1
			c0-0.3,0.2-0.5,0.5-0.7c0.3-0.2,0.8-0.4,1.5-0.6c0.7-0.2,1.1-0.4,1.3-0.5c0.2-0.1,0.4-0.2,0.5-0.2c0.2-0.1,0.3-0.2,0.4-0.2
			c0.1-0.1,0.2-0.2,0.4-0.3c0.1-0.1,0.2-0.2,0.3-0.2c0.1,0,0.1-0.1,0.2-0.3c0.1-0.2,0.1-0.3,0.2-0.3c0,0,0.1-0.2,0.2-0.4
			c0.1-0.2,0.2-0.4,0.2-0.5c0-0.1,0.1-0.3,0.2-0.6c0.1-0.3,0.2-0.5,0.2-0.7l9.2-25.4c0.2-0.4,0.3-0.9,0.5-1.3c0.2-0.4,0.3-0.8,0.4-1
			c0.1-0.2,0.2-0.4,0.2-0.6c0.1-0.2,0.2-0.3,0.3-0.4c0.1-0.1,0.2-0.1,0.3-0.1c0.4,0,1-0.3,1.6-0.9c0.6-0.6,0.9-0.9,1-0.9
			c0.2,0,0.4,0.1,0.5,0.2c0.2,0.1,0.3,0.4,0.4,0.7c0.1,0.3,0.3,0.6,0.4,0.9c0.1,0.3,0.2,0.7,0.4,1.3c0.2,0.6,0.3,1,0.4,1.3l7.9,22.4
			c1,2.6,1.7,4.4,2.3,5.4c0.6,0.9,1.6,1.7,3,2.2c1.6,0.6,2.4,1.2,2.4,1.9c0,0.6-0.6,1-1.7,1c-0.4,0-1.2-0.1-2.5-0.2
			C405,106.8,404,106.7,403.3,106.7z M386.2,90.6c-0.2,0.5-0.3,0.8-0.3,1c0.1,0.2,0.3,0.3,0.8,0.3h7.3c0.6,0,0.9-0.1,1-0.4
			c0.1-0.2,0-0.8-0.4-1.8L391,78.5c-0.2-0.6-0.4-0.5-0.7,0.2L386.2,90.6z"/>
	</g>
</g>
</svg>
