<?xml version="1.0" encoding="utf-8"?>
<!-- Generator: Adobe Illustrator 22.0.1, SVG Export Plug-In . SVG Version: 6.00 Build 0)  -->
<svg version="1.1" id="レイヤー_1" xmlns="http://www.w3.org/2000/svg" xmlns:xlink="http://www.w3.org/1999/xlink" x="0px"
	 y="0px" viewBox="0 0 272.3 15.2" style="enable-background:new 0 0 272.3 15.2;" xml:space="preserve">
<style type="text/css">
	.st0{fill:#0A0A0A;}
</style>
<g>
	<path class="st0" d="M8.2,0.4c1.6,0,3.1,0.7,4.5,2.1c1.4,1.4,2.1,3,2.1,4.8c0,2.1-0.7,3.9-2.1,5.4s-3.1,2.3-5.1,2.3
		c-2.2,0-4-0.7-5.4-2.1C0.7,11.6,0,9.9,0,7.7c0-2.2,0.8-4,2.3-5.3C3.8,1.1,5.7,0.4,8.2,0.4z M2.7,6.9c0,1.8,0.5,3.4,1.4,4.9
		c1,1.5,2.2,2.2,3.8,2.2c1.3,0,2.3-0.6,3-1.8C11.7,11,12,9.6,12,8.1c0-1.7-0.4-3.2-1.3-4.5c-0.9-1.3-2-2-3.5-2C6,1.5,4.9,2.1,4,3.2
		C3.1,4.3,2.7,5.5,2.7,6.9z"/>
	<path class="st0" d="M22,14.8c-0.5,0-0.8-0.2-0.8-0.4c0-0.1,0.1-0.2,0.2-0.3c0.1-0.1,0.3-0.2,0.6-0.2s0.4-0.2,0.5-0.2
		c0.4-0.2,0.7-0.4,0.9-0.7c0.2-0.3,0.3-0.6,0.3-1.1V3.2c0-0.1,0-0.3,0-0.4c0-0.1,0-0.2-0.1-0.3s-0.1-0.2-0.1-0.3S23.4,2.1,23.3,2
		c-0.1-0.1-0.2-0.1-0.2-0.1c0,0-0.1-0.1-0.3-0.1c-0.2-0.1-0.3-0.1-0.3-0.1c-0.1,0-0.2-0.1-0.4-0.1c-0.2-0.1-0.3-0.1-0.4-0.1
		c-0.3-0.1-0.4-0.2-0.4-0.4c0-0.3,0.3-0.4,0.8-0.4h6.7c0.4,0,0.9,0,1.6-0.1c0.7,0,1.1-0.1,1.2-0.1c0.4,0,0.6,0.1,0.6,0.3
		c0.1,0.6,0.2,1.2,0.2,2c0,0.4-0.1,0.6-0.4,0.6c-0.3,0-0.6-0.3-0.9-0.9C31,2,30.4,1.7,29.3,1.7h-2.7c-0.3,0-0.5,0-0.6,0.1
		C26,1.9,25.9,2,25.9,2.2l0,4c0,0.5,0.2,0.7,0.6,0.7h1.9c0.2,0,0.5,0,0.6-0.1c0.2-0.1,0.3-0.1,0.4-0.2c0.1-0.1,0.2-0.2,0.4-0.4
		c0,0,0.1-0.1,0.2-0.3c0.1-0.1,0.2-0.2,0.3-0.3c0.1-0.1,0.2-0.1,0.2-0.1c0.2,0,0.3,0.2,0.3,0.5c0,0,0,0.3,0,0.6c0,0.4,0,0.6,0,0.8
		c0,0.1,0,0.4,0,0.7c0,0.4,0,0.6,0,0.6c0,0.4-0.1,0.6-0.3,0.6c-0.1,0-0.1,0-0.2-0.1c-0.1,0-0.1-0.1-0.2-0.2C30,9.2,29.9,9.1,29.9,9
		c0-0.1-0.1-0.1-0.1-0.3c-0.1-0.1-0.1-0.2-0.1-0.2c-0.2-0.3-0.5-0.5-0.8-0.5h-2.3c-0.2,0-0.4,0-0.5,0.1c-0.1,0.1-0.1,0.2-0.1,0.5
		l0,3.3c0,0.4,0.1,0.8,0.3,1.1c0.2,0.3,0.5,0.5,0.9,0.7c0.1,0,0.3,0.1,0.5,0.2c0.3,0.1,0.5,0.2,0.6,0.2c0.1,0.1,0.2,0.2,0.2,0.3
		c0,0.2-0.3,0.4-0.8,0.4c0,0-0.2,0-0.5,0c-0.3,0-0.7,0-1.2-0.1s-0.9,0-1.2,0c-0.3,0-0.7,0-1.1,0c-0.4,0-0.8,0-1.1,0.1
		C22.2,14.8,22,14.8,22,14.8z"/>
	<path class="st0" d="M38.5,14.8c-0.5,0-0.8-0.2-0.8-0.4c0-0.1,0.1-0.2,0.2-0.3c0.1-0.1,0.3-0.2,0.6-0.2s0.4-0.2,0.5-0.2
		c0.4-0.2,0.7-0.4,0.9-0.7c0.2-0.3,0.3-0.6,0.3-1.1V3.2c0-0.1,0-0.3,0-0.4c0-0.1,0-0.2-0.1-0.3S40,2.3,40,2.2S39.9,2.1,39.8,2
		c-0.1-0.1-0.2-0.1-0.2-0.1c0,0-0.1-0.1-0.3-0.1c-0.2-0.1-0.3-0.1-0.3-0.1c-0.1,0-0.2-0.1-0.4-0.1c-0.2-0.1-0.3-0.1-0.4-0.1
		C38,1.4,37.8,1.2,37.8,1c0-0.3,0.3-0.4,0.8-0.4h6.7c0.4,0,0.9,0,1.6-0.1c0.7,0,1.1-0.1,1.2-0.1c0.4,0,0.6,0.1,0.6,0.3
		c0.1,0.6,0.2,1.2,0.2,2c0,0.4-0.1,0.6-0.4,0.6c-0.3,0-0.6-0.3-0.9-0.9c-0.3-0.5-0.9-0.8-1.9-0.8h-2.7c-0.3,0-0.5,0-0.6,0.1
		c-0.1,0.1-0.1,0.2-0.1,0.4l0,4c0,0.5,0.2,0.7,0.6,0.7h1.9c0.2,0,0.5,0,0.6-0.1c0.2-0.1,0.3-0.1,0.4-0.2c0.1-0.1,0.2-0.2,0.4-0.4
		c0,0,0.1-0.1,0.2-0.3c0.1-0.1,0.2-0.2,0.3-0.3c0.1-0.1,0.2-0.1,0.2-0.1c0.2,0,0.3,0.2,0.3,0.5c0,0,0,0.3,0,0.6c0,0.4,0,0.6,0,0.8
		c0,0.1,0,0.4,0,0.7c0,0.4,0,0.6,0,0.6c0,0.4-0.1,0.6-0.3,0.6c-0.1,0-0.1,0-0.2-0.1c-0.1,0-0.1-0.1-0.2-0.2
		c-0.1-0.1-0.1-0.2-0.1-0.2c0-0.1-0.1-0.1-0.1-0.3c-0.1-0.1-0.1-0.2-0.1-0.2c-0.2-0.3-0.5-0.5-0.8-0.5H43c-0.2,0-0.4,0-0.5,0.1
		c-0.1,0.1-0.1,0.2-0.1,0.5l0,3.3c0,0.4,0.1,0.8,0.3,1.1c0.2,0.3,0.5,0.5,0.9,0.7c0.1,0,0.3,0.1,0.5,0.2c0.3,0.1,0.5,0.2,0.6,0.2
		c0.1,0.1,0.2,0.2,0.2,0.3c0,0.2-0.3,0.4-0.8,0.4c0,0-0.2,0-0.5,0c-0.3,0-0.7,0-1.2-0.1s-0.9,0-1.2,0c-0.3,0-0.7,0-1.1,0
		c-0.4,0-0.8,0-1.1,0.1C38.7,14.8,38.6,14.8,38.5,14.8z"/>
	<path class="st0" d="M60.5,0.6c0.2,0,0.4,0,0.6,0.1c0.2,0.1,0.3,0.2,0.3,0.3c0,0.2-0.1,0.3-0.4,0.4c-0.1,0-0.2,0.1-0.4,0.1
		c-0.2,0.1-0.3,0.1-0.4,0.1c-0.1,0-0.2,0.1-0.3,0.1c-0.2,0.1-0.2,0.1-0.3,0.1c0,0-0.1,0.1-0.2,0.1c-0.1,0.1-0.2,0.1-0.2,0.2
		s-0.1,0.1-0.1,0.3C59,2.6,59,2.7,59,2.8c0,0.1,0,0.3,0,0.4V12c0,0.4,0.1,0.8,0.3,1.1c0.2,0.3,0.5,0.5,0.9,0.7
		c0.1,0,0.3,0.1,0.5,0.2c0.3,0.1,0.5,0.2,0.6,0.2c0.1,0.1,0.2,0.2,0.2,0.3c0,0.2-0.3,0.4-0.8,0.4c0,0-0.2,0-0.5,0
		c-0.3,0-0.7,0-1.2-0.1s-0.9,0-1.2,0c-0.3,0-0.7,0-1.1,0c-0.4,0-0.8,0-1.1,0.1c-0.3,0-0.5,0-0.5,0c-0.5,0-0.8-0.2-0.8-0.4
		c0-0.1,0.1-0.2,0.2-0.3c0.1-0.1,0.3-0.2,0.6-0.2s0.4-0.2,0.5-0.2c0.4-0.2,0.7-0.4,0.9-0.7c0.2-0.3,0.3-0.6,0.3-1.1V3.2
		c0-0.1,0-0.3,0-0.4c0-0.1,0-0.2-0.1-0.3s-0.1-0.2-0.1-0.3S56.4,2.1,56.3,2c-0.1-0.1-0.2-0.1-0.2-0.1c0,0-0.1-0.1-0.3-0.1
		c-0.2-0.1-0.3-0.1-0.3-0.1c-0.1,0-0.2-0.1-0.4-0.1c-0.2-0.1-0.3-0.1-0.4-0.1c-0.3-0.1-0.4-0.2-0.4-0.4c0-0.1,0.1-0.2,0.3-0.3
		c0.2-0.1,0.4-0.1,0.6-0.1c0.3,0,0.8,0,1.4,0.1c0.6,0,1,0.1,1.3,0.1c0.3,0,0.7,0,1.3-0.1C59.8,0.6,60.2,0.6,60.5,0.6z"/>
	<path class="st0" d="M76.5,0.2c0.7,0,1.7,0.2,2.8,0.5C80.5,1,81,1.2,81,1.2c0.5,0,0.7,0.9,0.7,2.6c0,0.4-0.1,0.7-0.4,0.7
		c-0.3,0-0.7-0.5-1-1.5c-0.2-0.5-0.7-0.9-1.6-1.2C77.9,1.4,77,1.3,76,1.3c-1.6,0-2.9,0.6-3.9,1.7c-1.1,1.1-1.6,2.5-1.6,4.2
		c0,1.9,0.6,3.5,1.9,4.9c1.2,1.4,2.8,2.1,4.7,2.1c0.5,0,0.9-0.1,1.2-0.2c0.4-0.1,0.7-0.3,1-0.6c0.3-0.3,0.5-0.5,0.7-0.7
		c0.2-0.2,0.4-0.5,0.7-1c0.3-0.5,0.5-0.8,0.7-1c0.1-0.1,0.2-0.2,0.4-0.2c0.3,0,0.4,0.2,0.4,0.7c0,0.2-0.3,0.9-1,2.3
		c-0.2,0.4-0.4,0.7-0.5,0.8c-0.1,0.1-0.3,0.2-0.6,0.4c-1.1,0.4-2.5,0.6-4,0.6c-1.4,0-2.7-0.3-3.9-0.8c-1.2-0.6-2.3-1.4-3.1-2.5
		c-0.8-1.1-1.2-2.3-1.2-3.7c0-2.3,0.8-4.2,2.5-5.7C72,0.9,74.1,0.2,76.5,0.2z"/>
	<path class="st0" d="M94.5,0.6c0.2,0,0.4,0,0.6,0.1c0.2,0.1,0.3,0.2,0.3,0.3c0,0.2-0.1,0.3-0.4,0.4c-0.1,0-0.2,0.1-0.4,0.1
		c-0.2,0.1-0.3,0.1-0.4,0.1c-0.1,0-0.2,0.1-0.3,0.1c-0.2,0.1-0.2,0.1-0.3,0.1c0,0-0.1,0.1-0.2,0.1c-0.1,0.1-0.2,0.1-0.2,0.2
		s-0.1,0.1-0.1,0.3C93,2.6,93,2.7,93,2.8c0,0.1,0,0.3,0,0.4V12c0,0.4,0.1,0.8,0.3,1.1c0.2,0.3,0.5,0.5,0.9,0.7
		c0.1,0,0.3,0.1,0.5,0.2c0.3,0.1,0.5,0.2,0.6,0.2c0.1,0.1,0.2,0.2,0.2,0.3c0,0.2-0.3,0.4-0.8,0.4c0,0-0.2,0-0.5,0
		c-0.3,0-0.7,0-1.2-0.1s-0.9,0-1.2,0c-0.3,0-0.7,0-1.1,0c-0.4,0-0.8,0-1.1,0.1c-0.3,0-0.5,0-0.5,0c-0.5,0-0.8-0.2-0.8-0.4
		c0-0.1,0.1-0.2,0.2-0.3c0.1-0.1,0.3-0.2,0.6-0.2s0.4-0.2,0.5-0.2c0.4-0.2,0.7-0.4,0.9-0.7c0.2-0.3,0.3-0.6,0.3-1.1V3.2
		c0-0.1,0-0.3,0-0.4c0-0.1,0-0.2-0.1-0.3s-0.1-0.2-0.1-0.3S90.4,2.1,90.3,2c-0.1-0.1-0.2-0.1-0.2-0.1c0,0-0.1-0.1-0.3-0.1
		c-0.2-0.1-0.3-0.1-0.3-0.1c-0.1,0-0.2-0.1-0.4-0.1c-0.2-0.1-0.3-0.1-0.4-0.1c-0.3-0.1-0.4-0.2-0.4-0.4c0-0.1,0.1-0.2,0.3-0.3
		c0.2-0.1,0.4-0.1,0.6-0.1c0.3,0,0.8,0,1.4,0.1c0.6,0,1,0.1,1.3,0.1c0.3,0,0.7,0,1.3-0.1C93.8,0.6,94.2,0.6,94.5,0.6z"/>
	<path class="st0" d="M113.3,14.7c-0.6,0-1.2,0-1.9,0.1c-0.7,0-1.1,0.1-1.3,0.1c-0.2,0-0.3,0-0.5-0.1c-0.2-0.1-0.3-0.2-0.3-0.3
		c0-0.1,0.1-0.2,0.2-0.3c0.1-0.1,0.3-0.2,0.6-0.2c0.3-0.1,0.4-0.2,0.5-0.2c0.6-0.3,0.9-0.7,0.7-1.3l-0.7-2.3
		c-0.1-0.2-0.2-0.3-0.4-0.3h-4c-0.2,0-0.3,0.1-0.4,0.3l-0.9,2.6c-0.2,0.5,0,0.9,0.5,1c0.6,0.2,0.9,0.4,0.9,0.7
		c0,0.3-0.3,0.4-0.8,0.4c-0.2,0-0.5,0-1-0.1s-0.8-0.1-1-0.1c-0.2,0-0.5,0-0.9,0.1c-0.3,0-0.6,0.1-0.7,0.1c-0.5,0-0.8-0.1-0.8-0.4
		c0-0.1,0.1-0.2,0.2-0.3c0.1-0.1,0.3-0.2,0.6-0.2s0.4-0.2,0.5-0.2c0.1,0,0.2-0.1,0.2-0.1c0.1,0,0.1-0.1,0.2-0.1c0,0,0.1-0.1,0.1-0.1
		s0.1-0.1,0.1-0.1c0,0,0.1-0.1,0.1-0.1c0-0.1,0.1-0.1,0.1-0.1c0,0,0-0.1,0.1-0.2c0-0.1,0.1-0.1,0.1-0.2c0,0,0-0.1,0.1-0.2
		s0.1-0.2,0.1-0.3l3.7-10.2c0.1-0.2,0.1-0.4,0.2-0.5c0.1-0.2,0.1-0.3,0.1-0.4c0-0.1,0.1-0.2,0.1-0.2c0-0.1,0.1-0.1,0.1-0.2
		c0,0,0.1,0,0.1,0c0.2,0,0.4-0.1,0.6-0.4S109,0,109,0c0.1,0,0.2,0,0.2,0.1c0.1,0.1,0.1,0.1,0.2,0.3c0.1,0.1,0.1,0.2,0.1,0.3
		c0,0.1,0.1,0.3,0.2,0.5s0.1,0.4,0.2,0.5l3.2,9c0.4,1.1,0.7,1.8,0.9,2.1c0.2,0.4,0.6,0.7,1.2,0.9c0.6,0.2,1,0.5,1,0.7
		c0,0.3-0.2,0.4-0.7,0.4c-0.2,0-0.5,0-1-0.1C113.9,14.7,113.5,14.7,113.3,14.7z M106.4,8.3c-0.1,0.2-0.1,0.3-0.1,0.4
		c0,0.1,0.1,0.1,0.3,0.1h2.9c0.2,0,0.4,0,0.4-0.1c0-0.1,0-0.3-0.1-0.7l-1.5-4.5c-0.1-0.2-0.2-0.2-0.3,0.1L106.4,8.3z"/>
	<path class="st0" d="M126.3,12.7c0,0.4,0.1,0.6,0.3,0.7c0.2,0.1,0.4,0.2,0.8,0.2h3.2c0.3,0,0.6,0,0.8-0.1s0.4-0.2,0.6-0.3
		c0.2-0.1,0.3-0.3,0.5-0.5c0.2-0.2,0.3-0.4,0.3-0.6c0.1-0.1,0.2-0.4,0.3-0.7c0.1-0.3,0.2-0.6,0.3-0.7c0.1-0.3,0.4-0.5,0.6-0.5
		s0.4,0.4,0.4,1.1c0,0.3-0.1,0.8-0.3,1.5c-0.2,0.7-0.4,1.2-0.5,1.4c-0.1,0.2-0.2,0.3-0.3,0.4c-0.1,0.1-0.2,0.1-0.4,0.1
		c-0.2,0-1.3,0-3.4-0.1c-2.1,0-3.6-0.1-4.6-0.1c-0.3,0-0.7,0-1.1,0c-0.4,0-0.8,0-1.1,0.1c-0.3,0-0.5,0-0.5,0c-0.5,0-0.8-0.2-0.8-0.4
		c0-0.1,0.1-0.2,0.2-0.3c0.1-0.1,0.3-0.2,0.6-0.2s0.4-0.2,0.5-0.2c0.4-0.2,0.7-0.4,0.9-0.7c0.2-0.3,0.3-0.6,0.3-1.1V3.2
		c0-0.1,0-0.3,0-0.4c0-0.1,0-0.2-0.1-0.3s-0.1-0.2-0.1-0.3s-0.1-0.1-0.2-0.2c-0.1-0.1-0.2-0.1-0.2-0.1c0,0-0.1-0.1-0.3-0.1
		c-0.2-0.1-0.3-0.1-0.3-0.1c-0.1,0-0.2-0.1-0.4-0.1c-0.2-0.1-0.3-0.1-0.4-0.1c-0.3-0.1-0.4-0.2-0.4-0.4c0-0.3,0.3-0.4,0.9-0.4
		c0.3,0,0.8,0,1.4,0.1c0.6,0,1,0.1,1.3,0.1s0.7,0,1.3-0.1c0.6,0,1-0.1,1.3-0.1c0.2,0,0.4,0,0.6,0.1c0.2,0.1,0.3,0.2,0.3,0.3
		c0,0.2-0.1,0.3-0.4,0.4c-0.1,0-0.2,0.1-0.4,0.1c-0.2,0-0.3,0.1-0.4,0.1c-0.1,0-0.2,0.1-0.3,0.1c-0.1,0-0.2,0.1-0.3,0.1
		c0,0-0.1,0.1-0.2,0.1c-0.1,0.1-0.1,0.1-0.2,0.2c0,0.1-0.1,0.1-0.1,0.3c0,0.1-0.1,0.2-0.1,0.3c0,0.1,0,0.3,0,0.4V12.7z"/>
	<path class="st0" d="M166.9,1.5c-0.3-0.1-0.4-0.2-0.4-0.4c0-0.1,0.1-0.2,0.3-0.3c0.2-0.1,0.4-0.1,0.6-0.1c0.1,0,0.4,0,0.9,0.1
		c0.5,0,0.7,0.1,0.9,0.1c0.1,0,0.4,0,0.8-0.1c0.4,0,0.7-0.1,0.8-0.1c0.2,0,0.4,0,0.6,0.1c0.2,0.1,0.3,0.2,0.3,0.3
		c0,0.2-0.1,0.3-0.4,0.4c-0.5,0.2-0.9,0.4-1.2,0.8c-0.3,0.4-0.5,0.8-0.7,1.5l-3,8.2c-0.8,2.2-1.3,3.3-1.6,3.3
		c-0.2,0-0.5-0.6-0.9-1.7l-2.9-7.7l-2.2,6.1c-0.8,2.2-1.3,3.3-1.6,3.3c-0.2,0-0.5-0.6-0.9-1.7l-3.6-9.7c-0.2-0.5-0.3-0.8-0.4-1
		c-0.1-0.2-0.3-0.4-0.6-0.7c-0.3-0.3-0.7-0.5-1.2-0.6c-0.3-0.1-0.4-0.2-0.4-0.4c0-0.1,0.1-0.2,0.3-0.3c0.2-0.1,0.4-0.1,0.6-0.1
		c0.3,0,0.6,0,1,0.1c0.3,0,0.6,0.1,0.9,0.1c0.3,0,0.8,0,1.5-0.1c0.7,0,1.2-0.1,1.5-0.1c0.2,0,0.4,0,0.6,0.1c0.2,0.1,0.3,0.2,0.3,0.3
		c0,0.2-0.1,0.3-0.4,0.4c-0.6,0.2-1.1,0.4-1.4,0.7c-0.3,0.3-0.3,0.6-0.2,1.1l2.9,7.7c0.1,0.3,0.2,0.3,0.3,0l2.4-6.7L160,3.8
		c-0.1-0.4-0.2-0.6-0.2-0.7c0-0.1-0.1-0.3-0.2-0.5c-0.1-0.3-0.2-0.4-0.3-0.5c-0.1-0.1-0.2-0.2-0.4-0.3c-0.2-0.1-0.3-0.2-0.5-0.3
		c-0.3-0.1-0.4-0.2-0.4-0.4c0-0.1,0.1-0.2,0.3-0.3c0.2-0.1,0.4-0.1,0.6-0.1c0.3,0,0.6,0,1,0.1c0.3,0,0.6,0.1,0.9,0.1s0.7,0,1.3-0.1
		c0.6,0,1-0.1,1.3-0.1c0.2,0,0.4,0,0.6,0.1c0.2,0.1,0.3,0.2,0.3,0.3c0,0.2-0.1,0.3-0.4,0.4c-0.6,0.2-1.1,0.4-1.4,0.7
		c-0.3,0.3-0.3,0.6-0.2,1.1l2.9,7.7c0.1,0.3,0.2,0.3,0.3,0l2.5-7c0.2-0.8,0.3-1.4,0.1-1.7C167.8,1.9,167.5,1.7,166.9,1.5z"/>
	<path class="st0" d="M181.8,6.2c0,0.5,0.2,0.7,0.6,0.7h2.1c0.2,0,0.5,0,0.6-0.1c0.2-0.1,0.3-0.1,0.4-0.2c0.1-0.1,0.2-0.2,0.4-0.4
		c0,0,0.1-0.1,0.2-0.3c0.1-0.1,0.2-0.2,0.3-0.3c0.1-0.1,0.2-0.1,0.2-0.1c0.2,0,0.3,0.2,0.3,0.5c0,0,0,0.3,0,0.6c0,0.4,0,0.6,0,0.8
		c0,0.1,0,0.4,0,0.7c0,0.4,0,0.6,0,0.6c0,0.4-0.1,0.6-0.3,0.6c-0.1,0-0.1,0-0.2-0.1c-0.1,0-0.1-0.1-0.2-0.2C186,9.2,186,9.2,186,9.1
		c0-0.1-0.1-0.1-0.1-0.3c-0.1-0.1-0.1-0.2-0.1-0.2c-0.2-0.3-0.5-0.5-0.8-0.5h-2.5c-0.2,0-0.4,0-0.5,0.1c-0.1,0.1-0.1,0.2-0.1,0.5v4
		c0,0.3,0.1,0.6,0.2,0.7c0.1,0.2,0.4,0.2,0.7,0.2h3.4c0.4,0,0.8,0,1.1-0.1s0.5-0.2,0.8-0.5c0.2-0.2,0.4-0.5,0.5-0.6
		c0.1-0.2,0.3-0.5,0.5-1c0.1-0.3,0.4-0.5,0.6-0.5c0.2,0,0.3,0.2,0.3,0.6c0,0.3-0.1,0.8-0.4,1.5s-0.4,1.1-0.6,1.3
		c-0.1,0.1-0.1,0.2-0.2,0.3c0,0-0.1,0.1-0.2,0.1c-0.1,0-0.2,0-0.3,0c-0.2,0-1.2,0-3.3-0.1c-2,0-3.5-0.1-4.5-0.1c-0.3,0-0.7,0-1.1,0
		c-0.4,0-0.8,0-1.1,0.1c-0.3,0-0.5,0-0.5,0c-0.5,0-0.8-0.2-0.8-0.4c0-0.1,0.1-0.2,0.2-0.3c0.1-0.1,0.3-0.2,0.6-0.2s0.4-0.2,0.5-0.2
		c0.4-0.2,0.7-0.4,0.9-0.7c0.2-0.3,0.3-0.6,0.3-1.1V3.2c0-0.1,0-0.3,0-0.4c0-0.1,0-0.2-0.1-0.3s-0.1-0.2-0.1-0.3s-0.1-0.1-0.2-0.2
		c-0.1-0.1-0.2-0.1-0.2-0.1c0,0-0.1-0.1-0.3-0.1c-0.2-0.1-0.3-0.1-0.3-0.1c-0.1,0-0.2-0.1-0.4-0.1c-0.2-0.1-0.3-0.1-0.4-0.1
		c-0.3-0.1-0.4-0.2-0.4-0.4c0-0.3,0.3-0.4,0.8-0.4h6.9c0.4,0,0.9,0,1.6-0.1c0.7,0,1.1-0.1,1.2-0.1c0.4,0,0.6,0.1,0.6,0.3
		c0.1,0.6,0.2,1.2,0.2,2c0,0.4-0.1,0.6-0.4,0.6c-0.3,0-0.6-0.3-0.9-0.9c-0.3-0.5-0.9-0.8-1.9-0.8h-2.9c-0.3,0-0.5,0-0.6,0.1
		c-0.1,0.1-0.1,0.2-0.1,0.4V6.2z"/>
	<path class="st0" d="M199.1,0.6c0.1,0,0.6,0,1.3-0.1c0.7,0,1.3-0.1,1.7-0.1c1,0,1.9,0.3,2.7,0.8c0.8,0.5,1.2,1.2,1.2,2.1
		c0,0.8-0.2,1.6-0.6,2.2c-0.4,0.6-0.9,1-1.6,1.3c-0.1,0-0.1,0.1-0.2,0.1c0,0.1,0,0.1,0,0.2c0,0,0.1,0.1,0.1,0.1
		c0.9,0.1,1.7,0.5,2.3,1.1c0.6,0.6,0.9,1.3,0.9,2.3c0,1.4-0.5,2.5-1.6,3.3c-1.1,0.7-2.4,1.1-4.1,1.1c-0.2,0-0.6,0-1.2-0.1
		c-0.6,0-1-0.1-1.1-0.1c-0.3,0-0.7,0-1.1,0c-0.4,0-0.8,0-1.1,0.1c-0.3,0-0.5,0-0.5,0c-0.5,0-0.8-0.2-0.8-0.4c0-0.1,0.1-0.2,0.2-0.3
		c0.1-0.1,0.3-0.2,0.6-0.2s0.4-0.2,0.5-0.2c0.8-0.3,1.1-1,1.1-2V3.2c0-0.1,0-0.3,0-0.4c0-0.1,0-0.2-0.1-0.3s-0.1-0.2-0.1-0.3
		s-0.1-0.1-0.2-0.2c-0.1-0.1-0.2-0.1-0.2-0.1c0,0-0.1-0.1-0.3-0.1c-0.2-0.1-0.3-0.1-0.3-0.1c-0.1,0-0.2-0.1-0.4-0.1
		c-0.2-0.1-0.3-0.1-0.4-0.1c-0.3-0.1-0.4-0.2-0.4-0.4c0-0.3,0.3-0.4,0.8-0.4H199.1z M200.2,2.1v4.2c0,0.3,0.2,0.5,0.7,0.5
		c0.8,0,1.4-0.3,2-0.8c0.6-0.5,0.9-1.2,0.9-1.9c0-0.8-0.2-1.5-0.7-1.9c-0.5-0.5-1.1-0.7-1.8-0.7c-0.5,0-0.8,0-0.9,0.1
		C200.3,1.7,200.2,1.9,200.2,2.1z M200.2,12.7c0,0.7,0.4,1.1,1.3,1.1s1.5-0.3,2-0.9c0.5-0.6,0.7-1.3,0.7-2.2c0-1-0.3-1.8-0.8-2.2
		c-0.5-0.5-1.4-0.7-2.6-0.7c-0.5,0-0.7,0.2-0.7,0.6V12.7z"/>
	<path class="st0" d="M217.9,0.4c0.8,0,1.7,0.2,2.4,0.6c0.4,0.2,0.7,0.5,0.7,0.7c0.1,0.3,0.1,0.8,0.1,1.4c0,0.4-0.2,0.6-0.5,0.6
		c-0.3,0-0.7-0.4-1-1.1c-0.1-0.3-0.4-0.5-0.7-0.6c-0.4-0.2-0.8-0.2-1.2-0.2c-0.5,0-1,0.2-1.4,0.6c-0.4,0.4-0.6,0.8-0.6,1.3
		c0,0.7,0.4,1.3,1.2,2l3.4,2.9c0.8,0.6,1.2,1.5,1.2,2.4c0,1.1-0.5,2.1-1.5,2.9c-1,0.8-2.1,1.2-3.3,1.2c-0.9,0-1.8-0.2-2.5-0.5
		c-0.5-0.2-0.8-0.4-0.9-0.5c-0.1-0.1-0.2-0.2-0.2-0.4c0-0.5,0-1,0.1-1.7c0.1-0.4,0.2-0.6,0.5-0.6c0.3,0,0.6,0.4,0.8,1.1
		c0.1,0.4,0.4,0.8,0.9,1.1c0.5,0.3,1,0.4,1.7,0.4c0.6,0,1.1-0.2,1.5-0.7c0.4-0.5,0.6-1,0.6-1.6c0-0.7-0.3-1.4-1-1.9l-3.2-2.7
		c-0.9-0.8-1.4-1.7-1.4-2.8c0-1.1,0.4-2.1,1.2-2.9C215.7,0.8,216.8,0.4,217.9,0.4z"/>
	<path class="st0" d="M233.7,0.6c0.2,0,0.4,0,0.6,0.1c0.2,0.1,0.3,0.2,0.3,0.3c0,0.2-0.1,0.3-0.4,0.4c-0.1,0-0.2,0.1-0.4,0.1
		c-0.2,0.1-0.3,0.1-0.4,0.1c-0.1,0-0.2,0.1-0.3,0.1c-0.2,0.1-0.2,0.1-0.3,0.1c0,0-0.1,0.1-0.2,0.1c-0.1,0.1-0.2,0.1-0.2,0.2
		s-0.1,0.1-0.1,0.3c0,0.1-0.1,0.2-0.1,0.3c0,0.1,0,0.3,0,0.4V12c0,0.4,0.1,0.8,0.3,1.1c0.2,0.3,0.5,0.5,0.9,0.7
		c0.1,0,0.3,0.1,0.5,0.2c0.3,0.1,0.5,0.2,0.6,0.2c0.1,0.1,0.2,0.2,0.2,0.3c0,0.2-0.3,0.4-0.8,0.4c0,0-0.2,0-0.5,0
		c-0.3,0-0.7,0-1.2-0.1s-0.9,0-1.2,0c-0.3,0-0.7,0-1.1,0c-0.4,0-0.8,0-1.1,0.1c-0.3,0-0.5,0-0.5,0c-0.5,0-0.8-0.2-0.8-0.4
		c0-0.1,0.1-0.2,0.2-0.3c0.1-0.1,0.3-0.2,0.6-0.2s0.4-0.2,0.5-0.2c0.4-0.2,0.7-0.4,0.9-0.7c0.2-0.3,0.3-0.6,0.3-1.1V3.2
		c0-0.1,0-0.3,0-0.4c0-0.1,0-0.2-0.1-0.3s-0.1-0.2-0.1-0.3s-0.1-0.1-0.2-0.2c-0.1-0.1-0.2-0.1-0.2-0.1c0,0-0.1-0.1-0.3-0.1
		c-0.2-0.1-0.3-0.1-0.3-0.1c-0.1,0-0.2-0.1-0.4-0.1c-0.2-0.1-0.3-0.1-0.4-0.1c-0.3-0.1-0.4-0.2-0.4-0.4c0-0.1,0.1-0.2,0.3-0.3
		c0.2-0.1,0.4-0.1,0.6-0.1c0.3,0,0.8,0,1.4,0.1c0.6,0,1,0.1,1.3,0.1c0.3,0,0.7,0,1.3-0.1C233,0.6,233.4,0.6,233.7,0.6z"/>
	<path class="st0" d="M246.3,2.7c0-0.5-0.1-0.7-0.4-0.7H243c-0.3,0-0.5,0.1-0.6,0.2c-0.1,0.1-0.3,0.3-0.4,0.6c0,0.1-0.1,0.2-0.2,0.4
		s-0.1,0.3-0.2,0.4c0,0.1-0.1,0.2-0.2,0.3s-0.1,0.1-0.2,0.1c-0.3,0-0.4-0.2-0.4-0.6c0-0.2,0-0.4,0.1-0.7c0-0.3,0.1-0.6,0.1-0.8
		c0-0.1,0-0.3,0-0.6c0-0.3,0-0.4,0-0.5c0-0.2,0-0.3,0.1-0.4c0.1-0.1,0.2-0.2,0.3-0.2c0,0,0.3,0.1,0.8,0.4c0.5,0.2,1,0.4,1.5,0.4h8.4
		c0.6,0,1.2-0.1,1.7-0.4c0.1,0,0.1-0.1,0.2-0.2c0.1-0.1,0.2-0.1,0.2-0.2s0.1,0,0.2,0c0.1,0,0.2,0,0.3,0.1c0.1,0.1,0.1,0.2,0.1,0.3
		c0,0,0,0.2,0,0.4c0,0.2,0,0.4,0,0.6c0,0.2,0,0.5,0,0.9c0,0.4,0,0.6,0,0.7c0,0.4-0.1,0.6-0.3,0.6c-0.2,0-0.4-0.4-0.9-1.1
		c-0.3-0.4-0.6-0.7-0.9-0.7h-3.7c-0.2,0-0.3,0.2-0.3,0.7V12c0,0.4,0.1,0.8,0.3,1.1c0.2,0.3,0.5,0.5,0.9,0.7c0.1,0,0.3,0.1,0.5,0.2
		c0.3,0.1,0.5,0.2,0.6,0.2c0.1,0.1,0.2,0.2,0.2,0.3c0,0.2-0.3,0.4-0.8,0.4c0,0-0.2,0-0.5,0c-0.3,0-0.7,0-1.2-0.1c-0.5,0-0.9,0-1.2,0
		c-0.3,0-0.7,0-1.1,0c-0.4,0-0.8,0-1.1,0.1c-0.3,0-0.5,0-0.5,0c-0.5,0-0.8-0.2-0.8-0.4c0-0.1,0.1-0.2,0.2-0.3
		c0.1-0.1,0.3-0.2,0.6-0.2c0.3-0.1,0.4-0.2,0.5-0.2c0.4-0.2,0.7-0.4,0.9-0.7c0.2-0.3,0.3-0.6,0.3-1.1V2.7z"/>
	<path class="st0" d="M264.1,6.2c0,0.5,0.2,0.7,0.6,0.7h2.1c0.2,0,0.5,0,0.6-0.1c0.2-0.1,0.3-0.1,0.4-0.2c0.1-0.1,0.2-0.2,0.4-0.4
		c0,0,0.1-0.1,0.2-0.3c0.1-0.1,0.2-0.2,0.3-0.3c0.1-0.1,0.2-0.1,0.2-0.1c0.2,0,0.3,0.2,0.3,0.5c0,0,0,0.3,0,0.6c0,0.4,0,0.6,0,0.8
		c0,0.1,0,0.4,0,0.7c0,0.4,0,0.6,0,0.6c0,0.4-0.1,0.6-0.3,0.6c-0.1,0-0.1,0-0.2-0.1c-0.1,0-0.1-0.1-0.2-0.2
		c-0.1-0.1-0.1-0.2-0.1-0.2c0-0.1-0.1-0.1-0.1-0.3c-0.1-0.1-0.1-0.2-0.1-0.2c-0.2-0.3-0.5-0.5-0.8-0.5h-2.5c-0.2,0-0.4,0-0.5,0.1
		c-0.1,0.1-0.1,0.2-0.1,0.5v4c0,0.3,0.1,0.6,0.2,0.7c0.1,0.2,0.4,0.2,0.7,0.2h3.4c0.4,0,0.8,0,1.1-0.1s0.5-0.2,0.8-0.5
		c0.2-0.2,0.4-0.5,0.5-0.6c0.1-0.2,0.3-0.5,0.5-1c0.1-0.3,0.4-0.5,0.6-0.5c0.2,0,0.3,0.2,0.3,0.6c0,0.3-0.1,0.8-0.4,1.5
		s-0.4,1.1-0.6,1.3c-0.1,0.1-0.1,0.2-0.2,0.3c0,0-0.1,0.1-0.2,0.1c-0.1,0-0.2,0-0.3,0c-0.2,0-1.2,0-3.3-0.1c-2,0-3.5-0.1-4.5-0.1
		c-0.3,0-0.7,0-1.1,0c-0.4,0-0.8,0-1.1,0.1c-0.3,0-0.5,0-0.5,0c-0.5,0-0.8-0.2-0.8-0.4c0-0.1,0.1-0.2,0.2-0.3
		c0.1-0.1,0.3-0.2,0.6-0.2s0.4-0.2,0.5-0.2c0.4-0.2,0.7-0.4,0.9-0.7c0.2-0.3,0.3-0.6,0.3-1.1V3.2c0-0.1,0-0.3,0-0.4
		c0-0.1,0-0.2-0.1-0.3s-0.1-0.2-0.1-0.3s-0.1-0.1-0.2-0.2c-0.1-0.1-0.2-0.1-0.2-0.1c0,0-0.1-0.1-0.3-0.1c-0.2-0.1-0.3-0.1-0.3-0.1
		c-0.1,0-0.2-0.1-0.4-0.1c-0.2-0.1-0.3-0.1-0.4-0.1c-0.3-0.1-0.4-0.2-0.4-0.4c0-0.3,0.3-0.4,0.8-0.4h6.9c0.4,0,0.9,0,1.6-0.1
		c0.7,0,1.1-0.1,1.2-0.1c0.4,0,0.6,0.1,0.6,0.3c0.1,0.6,0.2,1.2,0.2,2c0,0.4-0.1,0.6-0.4,0.6c-0.3,0-0.6-0.3-0.9-0.9
		c-0.3-0.5-0.9-0.8-1.9-0.8h-2.9c-0.3,0-0.5,0-0.6,0.1c-0.1,0.1-0.1,0.2-0.1,0.4V6.2z"/>
</g>
</svg>
